<svg id="down-arrow-download-svgrepo-com" xmlns="http://www.w3.org/2000/svg" width="492" height="492" viewBox="0 0 492 492">
  <g id="Group_27" data-name="Group 27">
    <path id="Path_64" data-name="Path 64" d="M246,0C110.356,0,0,110.352,0,246S110.356,492,246,492,492,381.648,492,246,381.648,0,246,0ZM353.78,296.076,259.4,390.452a19.081,19.081,0,0,1-13.592,5.592l-.064,3.844.012-3.844a.388.388,0,0,1-.068,0,19.1,19.1,0,0,1-13.6-5.592l-94.344-94.348a19.241,19.241,0,0,1,0-27.184l16.12-16.128a19.014,19.014,0,0,1,26.944-.008l27.852,28.084a3.843,3.843,0,0,0,6.572-2.708V119.124c0-10.42,9.016-19.224,19.688-19.224h22.8a19.145,19.145,0,0,1,19.024,19.224V277a3.845,3.845,0,0,0,6.56,2.724l27.06-26.96a19.338,19.338,0,0,1,27.232,0l16.148,16.12a19.295,19.295,0,0,1,.024,27.184Z" fill="#91ff6a"/>
  </g>
</svg>
