<svg xmlns="http://www.w3.org/2000/svg" width="24" height="24" viewBox="0 0 24 24">
  <path id="github-svgrepo-com" d="M12,0h.091a11.474,11.474,0,0,1,5.986,1.679l-.054-.031a12.2,12.2,0,0,1,4.34,4.42l.03.058a12.407,12.407,0,0,1,1.613,6.163,12.3,12.3,0,0,1-8.123,11.653l-.085.026a.667.667,0,0,1-.2.031.7.7,0,0,1-.422-.144h0a.631.631,0,0,1-.2-.466v-.014h0q0-.048.008-1.225T14.987,20c.007-.075.011-.161.011-.249a2.878,2.878,0,0,0-.823-2.024,10.418,10.418,0,0,0,1.676-.3l-.074.017a6.266,6.266,0,0,0,1.5-.642l-.03.017a4.433,4.433,0,0,0,1.26-1.058l.006-.007a4.943,4.943,0,0,0,.819-1.644l.009-.035a8.065,8.065,0,0,0,.321-2.28c0-.045,0-.091,0-.136v.007c0-.022,0-.047,0-.072A4.792,4.792,0,0,0,18.423,8.36l0,0a4.269,4.269,0,0,0,.258-1.478,4.336,4.336,0,0,0-.394-1.813L18.3,5.1a1.96,1.96,0,0,0-.372-.035,2,2,0,0,0-.906.216l.012,0A8.324,8.324,0,0,0,15.56,6l.037-.022L15,6.361a10.789,10.789,0,0,0-3-.416,11.045,11.045,0,0,0-3.079.436L9,6.361q-.25-.176-.664-.433A8.783,8.783,0,0,0,7.1,5.334l-.064-.022A2.11,2.11,0,0,0,5.694,5.1l.013,0a4.284,4.284,0,0,0-.383,1.787,4.336,4.336,0,0,0,.268,1.508l-.01-.029a4.785,4.785,0,0,0-1.235,3.226c0,.025,0,.051,0,.076v0c0,.039,0,.084,0,.13a8.162,8.162,0,0,0,.336,2.326l-.015-.057A5.212,5.212,0,0,0,5.5,15.751l-.009-.013A4.27,4.27,0,0,0,6.724,16.8l.021.011a6.131,6.131,0,0,0,1.424.614l.045.011a9.779,9.779,0,0,0,1.556.284l.045,0A2.722,2.722,0,0,0,9.05,19.36v.012a2.932,2.932,0,0,1-.682.236l-.02,0a4.214,4.214,0,0,1-.829.08H7.456a1.807,1.807,0,0,1-1.029-.348l.006,0a2.818,2.818,0,0,1-.859-.986l-.007-.015a2.578,2.578,0,0,0-.749-.827l-.009-.006a2.252,2.252,0,0,0-.757-.38l-.016,0-.312-.048c-.022,0-.049,0-.075,0a1,1,0,0,0-.384.077l.007,0q-.125.072-.078.184a.88.88,0,0,0,.141.225h0a1.171,1.171,0,0,0,.2.19l0,0,.109.08a1.923,1.923,0,0,1,.676.6l0,.006a3.954,3.954,0,0,1,.482.792l.01.024.156.368a2.036,2.036,0,0,0,.683.981l0,0a2.4,2.4,0,0,0,1.031.478l.016,0a6.336,6.336,0,0,0,1.079.112h.007c.044,0,.095,0,.146,0a4.51,4.51,0,0,0,.748-.062l-.026,0,.359-.064q0,.609.008,1.417t.008.873v.014a.631.631,0,0,1-.2.466h0a.692.692,0,0,1-.629.111h0a12.328,12.328,0,0,1-8.2-11.685,12.5,12.5,0,0,1,1.64-6.216l-.031.058A12.2,12.2,0,0,1,5.928,1.674l.057-.031A11.394,11.394,0,0,1,11.908,0H12ZM4.547,17.658q.047-.112-.109-.192-.156-.048-.2.032-.047.112.109.192Q4.484,17.786,4.547,17.658Zm.485.545q.109-.08-.031-.256-.156-.144-.25-.048-.109.08.031.256.155.157.25.047Zm.468.72q.14-.112,0-.3-.125-.208-.265-.1-.14.08,0,.288t.265.112Zm.656.673q.125-.128-.062-.3-.187-.192-.312-.048-.14.128.062.3.187.192.312.044Zm.891.4q.047-.176-.2-.256-.234-.064-.3.112t.2.24q.234.1.3-.1Zm.984.08q0-.208-.265-.176-.25,0-.25.176,0,.208.265.176.25,0,.25-.175Zm.906-.16q-.031-.176-.281-.144-.25.048-.219.24t.281.128q.25-.064.219-.224Z" transform="translate(-0.006 0.001)" fill="#91ff6a"/>
</svg>
